<?xml version="1.0" encoding="UTF-8" standalone="no"?>
<!-- Created with Inkscape (http://www.inkscape.org/) -->

<svg
   width="99.898972mm"
   height="28.040079mm"
   viewBox="0 0 99.898972 28.040079"
   version="1.1"
   id="svg1"
   inkscape:version="1.4.3 (0d15f75042, 2025-12-25)"
   sodipodi:docname="hvit_horisontal.svg"
   xmlns:inkscape="http://www.inkscape.org/namespaces/inkscape"
   xmlns:sodipodi="http://sodipodi.sourceforge.net/DTD/sodipodi-0.dtd"
   xmlns="http://www.w3.org/2000/svg"
   xmlns:svg="http://www.w3.org/2000/svg">
  <sodipodi:namedview
     id="namedview1"
     pagecolor="#505050"
     bordercolor="#eeeeee"
     borderopacity="1"
     inkscape:showpageshadow="0"
     inkscape:pageopacity="0"
     inkscape:pagecheckerboard="0"
     inkscape:deskcolor="#d1d1d1"
     inkscape:document-units="mm"
     inkscape:zoom="1.1376192"
     inkscape:cx="-21.536204"
     inkscape:cy="21.536204"
     inkscape:window-width="1243"
     inkscape:window-height="1508"
     inkscape:window-x="1290"
     inkscape:window-y="45"
     inkscape:window-maximized="1"
     inkscape:current-layer="layer1" />
  <defs
     id="defs1" />
  <g
     inkscape:label="Layer 1"
     inkscape:groupmode="layer"
     id="layer1"
     transform="translate(-110.59583,-142.875)">
    <path
       id="path1"
       d="m 120.77876,158.93736 5.31319,-7.23018 2.05987,-2.80317 h -3.47875 l -2.05951,2.80317 -12.01773,16.35372 h 3.47839 l 5.04013,-6.85835 9.33309,6.85835 h 4.73357 l -12.40684,-9.11719 z"
       style="fill:#ffffff;fill-opacity:1;fill-rule:nonzero;stroke:none;stroke-width:0.352778" />
    <path
       id="path2"
       d="m 126.24865,158.10607 4.70217,-6.39904 h 8.86319 v -2.80317 h -10.2817 l -6.36976,8.66846 0.003,0.002 -0.83221,1.13277 12.72822,9.35319 h 4.73358 0.0187 v -15.23823 h -8.30192 v 0.005 l -0.002,-0.001 -3.70558,5.04295 5.9309,4.35822 v -3.47839 l -2.01224,-1.47884 1.20826,-1.64465 h 4.07917 v 10.3893 z"
       style="fill:#ffffff;fill-opacity:1;fill-rule:nonzero;stroke:none;stroke-width:0.352778" />
    <path
       id="path3"
       d="m 147.7711,152.81201 v 6.23288 h -5.26097 v 2.87831 h 5.26097 v 6.13763 h 2.85926 v -15.24882 z"
       style="fill:#ffffff;fill-opacity:1;fill-rule:nonzero;stroke:none;stroke-width:0.352778" />
    <path
       id="path4"
       d="m 161.90958,170.91508 -5.14773,-13.28067 -3.96487,10.42635 h -3.25967 l 5.50863,-13.97177 c 0.43885,-1.01 1.06785,-1.27705 1.71591,-1.27705 0.629,0 1.2961,0.26705 1.7152,1.27705 l 6.67315,16.82609 z"
       style="fill:#ffffff;fill-opacity:1;fill-rule:nonzero;stroke:none;stroke-width:0.352778" />
    <path
       id="path5"
       d="m 177.76423,160.47459 5.43242,-7.66269 h -3.46921 l -4.87962,6.78604 c -0.4572,0.60995 -0.4191,1.27705 0.0765,1.84855 l 4.92407,6.61423 h 3.50696 z"
       style="fill:#ffffff;fill-opacity:1;fill-rule:nonzero;stroke:none;stroke-width:0.352778" />
    <path
       id="path6"
       d="m 174.70797,155.67109 h -5.90903 c -0.87665,0 -1.6009,0.70556 -1.6009,1.62031 v 6.29003 c 0,0.9151 0.72425,1.6203 1.6009,1.6203 h 5.90903 v 2.85927 h -5.88962 c -2.47827,0 -4.47958,-2.03976 -4.47958,-4.53672 v -6.17573 c 0,-2.49696 2.00131,-4.53637 4.47958,-4.53637 h 5.88962 z"
       style="fill:#ffffff;fill-opacity:1;fill-rule:nonzero;stroke:none;stroke-width:0.352778" />
    <path
       id="path7"
       d="m 189.87255,158.42541 c 0,-1.22167 0.67874,-2.3749 0.67874,-3.63079 0,-1.28905 -0.79727,-2.08633 -2.44333,-2.08633 h -0.84808 v 1.74731 h 0.44132 c 0.71226,0 0.9331,0.45826 0.9331,0.9331 0,0.91616 -0.69568,2.18863 -0.69568,3.39302 0,0.88194 0.40711,1.40828 1.27247,1.59455 -0.86536,0.18662 -1.27247,0.71261 -1.27247,1.61184 0,1.18745 0.69568,2.45992 0.69568,3.39302 0,0.47484 -0.22084,0.9331 -0.9331,0.9331 h -0.44132 v 1.7473 h 0.84808 c 1.64606,0 2.44333,-0.78069 2.44333,-2.20556 0,-1.25554 -0.67874,-2.40877 -0.67874,-3.68124 0,-0.78034 0.44097,-1.06891 1.56104,-1.06891 v -1.47603 c -1.12007,0 -1.56104,-0.39017 -1.56104,-1.20438"
       style="fill:#ffffff;fill-opacity:1;fill-rule:nonzero;stroke:none;stroke-width:0.352778" />
    <path
       id="path8"
       d="m 208.39154,151.28769 h -2.10326 v 2.10326 h 2.10326 z"
       style="fill:#ffffff;fill-opacity:1;fill-rule:nonzero;stroke:none;stroke-width:0.352778" />
    <path
       id="path9"
       d="m 208.39154,142.875 h -2.10326 v 2.10326 h 2.10326 z"
       style="fill:#ffffff;fill-opacity:1;fill-rule:nonzero;stroke:none;stroke-width:0.352778" />
    <path
       id="path10"
       d="m 204.18502,142.875 h -2.10326 v 2.10326 h 2.10326 z"
       style="fill:#ffffff;fill-opacity:1;fill-rule:nonzero;stroke:none;stroke-width:0.352778" />
    <path
       id="path11"
       d="m 204.18502,151.28769 h 2.10326 v -2.10326 h -2.10326 z"
       style="fill:#ffffff;fill-opacity:1;fill-rule:nonzero;stroke:none;stroke-width:0.352778" />
    <path
       id="path12"
       d="m 208.39154,157.59712 h -2.10326 v 2.10326 h 2.10326 z"
       style="fill:#ffffff;fill-opacity:1;fill-rule:nonzero;stroke:none;stroke-width:0.352778" />
    <path
       id="path13"
       d="m 206.28828,166.00981 h 2.10326 v -2.10326 h -2.10326 z"
       style="fill:#ffffff;fill-opacity:1;fill-rule:nonzero;stroke:none;stroke-width:0.352778" />
    <path
       id="path14"
       d="m 208.39154,163.90655 h 2.10326 v -2.10326 h -2.10326 z"
       style="fill:#ffffff;fill-opacity:1;fill-rule:nonzero;stroke:none;stroke-width:0.352778" />
    <path
       id="path15"
       d="m 202.08197,149.17709 h 2.10326 v -2.09585 h 2.10291 v -2.10326 h -2.10291 v 2.09585 h -2.10326 v 0.007 h -2.10326 v 2.10326 h -2.10291 v 2.10291 h -2.10326 v -2.10291 -0.007 h 2.10326 v -2.09585 h 2.10291 v -2.10326 h -2.10291 v 2.09585 h -2.10326 v 0.007 h -2.10326 -2.10326 -2.10291 -2.10326 v 2.10326 h 2.10326 v 2.10291 h 2.10291 v 2.10326 h 2.10326 v 2.10326 h 2.10326 v 2.10326 h 2.10326 v 2.10291 h 2.10291 v 2.10326 h -2.10291 v 2.10326 h -2.10326 v 2.10291 h -2.10326 v 2.10326 h 2.10326 2.10326 2.10291 2.10326 2.10326 2.10291 v -2.10326 h -2.10291 v -2.10291 h -2.10326 v -2.10326 h 2.10326 v 2.10326 h 2.10291 v -2.10326 -2.10326 h -2.10291 v 0 0 -2.10291 h 2.10291 v -2.10326 -2.10326 h -2.10291 v 0 0 -2.10326 h -2.10326 v -2.10291 z"
       style="fill:#ffffff;fill-opacity:1;fill-rule:nonzero;stroke:none;stroke-width:0.352778" />
  </g>
</svg>
